<svg xmlns="http://www.w3.org/2000/svg" xmlns:xlink="http://www.w3.org/1999/xlink" width="1080" zoomAndPan="magnify" viewBox="0 0 810 809.999993" height="1080" preserveAspectRatio="xMidYMid meet" version="1.0"><defs><clipPath id="369ffea84c"><path d="M 688.03125 679.601562 L 804.082031 679.601562 L 804.082031 795.652344 L 688.03125 795.652344 Z M 688.03125 679.601562 " clip-rule="nonzero"/></clipPath></defs><path fill="#ffffff" d="M 737.542969 201.078125 L 412.960938 23.113281 C 406.554688 19.597656 398.816406 19.675781 392.40625 23.191406 L 72.585938 201 C 65.867188 204.75 61.644531 211.863281 61.644531 219.597656 L 61.644531 768.496094 C 61.644531 777.25 66.960938 785.0625 75.089844 788.269531 C 77.667969 789.285156 80.246094 789.753906 82.902344 789.753906 C 88.6875 789.753906 94.316406 787.410156 98.378906 783.03125 L 265.476562 605.226562 C 269.152344 601.320312 271.261719 596.082031 271.261719 590.6875 L 271.261719 461.496094 L 444.851562 365.671875 C 464.15625 386.546875 491.664062 399.753906 522.222656 399.753906 C 580.449219 399.753906 627.734375 352.386719 627.734375 294.160156 C 627.734375 235.933594 580.371094 188.570312 522.222656 188.570312 C 464.074219 188.570312 416.714844 235.933594 416.714844 294.160156 C 416.714844 306.507812 418.980469 318.3125 422.808594 329.332031 L 239.765625 430.3125 C 232.964844 434.0625 228.742188 441.175781 228.742188 448.914062 L 228.742188 582.25 L 104.164062 714.878906 L 104.164062 232.105469 L 402.878906 66.101562 L 706.125 232.339844 L 706.125 569.351562 L 508.78125 568.101562 C 499.402344 519.410156 456.574219 482.441406 405.222656 482.441406 C 346.996094 482.441406 299.710938 529.804688 299.710938 588.03125 C 299.710938 646.257812 347.074219 693.621094 405.222656 693.621094 C 455.714844 693.621094 497.917969 657.980469 508.3125 610.539062 L 727.304688 611.949219 C 727.382812 611.949219 727.382812 611.949219 727.460938 611.949219 C 733.089844 611.949219 738.484375 609.757812 742.46875 605.773438 C 746.453125 601.789062 748.722656 596.394531 748.722656 590.6875 L 748.722656 219.757812 C 748.566406 211.941406 744.34375 204.828125 737.542969 201.078125 Z M 522.300781 231.011719 C 557.082031 231.011719 585.375 259.304688 585.375 294.082031 C 585.375 328.863281 557.082031 357.234375 522.300781 357.234375 C 487.523438 357.234375 459.230469 328.941406 459.230469 294.082031 C 459.230469 259.304688 487.523438 231.011719 522.300781 231.011719 Z M 405.144531 651.105469 C 370.363281 651.105469 342.070312 622.8125 342.070312 588.03125 C 342.070312 553.253906 370.363281 524.882812 405.144531 524.882812 C 439.925781 524.882812 468.21875 553.175781 468.21875 588.03125 C 468.21875 622.8125 439.925781 651.105469 405.144531 651.105469 Z M 405.144531 651.105469 " fill-opacity="1" fill-rule="nonzero"/><path fill="#ffffff" d="M 746.894531 737.640625 C 753.546875 737.640625 757.898438 734.023438 757.898438 727.375 C 757.898438 720.722656 753.546875 717.519531 746.730469 717.519531 L 736.136719 717.519531 L 736.136719 737.640625 Z M 726.695312 708.898438 L 747.304688 708.898438 C 759.625 708.898438 767.507812 715.46875 767.507812 727.210938 C 767.507812 736.078125 762.582031 741.660156 755.597656 744.121094 L 769.066406 766.375 L 758.0625 766.375 L 745.910156 746.097656 C 745.828125 746.015625 742.871094 746.097656 742.789062 746.097656 L 736.136719 746.097656 L 736.136719 766.375 L 726.695312 766.375 L 726.695312 708.898438 " fill-opacity="1" fill-rule="nonzero"/><g clip-path="url(#369ffea84c)"><path fill="#ffffff" d="M 746.035156 689.554688 C 739.542969 689.554688 733.25 690.824219 727.332031 693.328125 C 721.609375 695.746094 716.472656 699.214844 712.054688 703.628906 C 707.644531 708.042969 704.175781 713.183594 701.753906 718.902344 C 699.25 724.820312 697.980469 731.117188 697.980469 737.605469 C 697.980469 744.09375 699.25 750.386719 701.753906 756.304688 C 704.175781 762.03125 707.644531 767.167969 712.054688 771.582031 C 716.472656 775.996094 721.609375 779.464844 727.332031 781.882812 C 733.25 784.386719 739.542969 785.65625 746.035156 785.65625 C 752.523438 785.65625 758.8125 784.386719 764.734375 781.882812 C 770.453125 779.464844 775.59375 775.996094 780.011719 771.582031 C 784.425781 767.167969 787.890625 762.03125 790.3125 756.304688 C 792.816406 750.386719 794.085938 744.09375 794.085938 737.605469 C 794.085938 731.117188 792.816406 724.820312 790.3125 718.902344 C 787.890625 713.183594 784.425781 708.042969 780.011719 703.628906 C 775.59375 699.214844 770.453125 695.746094 764.734375 693.328125 C 758.8125 690.824219 752.523438 689.554688 746.035156 689.554688 Z M 746.035156 795.613281 C 738.207031 795.613281 730.609375 794.082031 723.453125 791.054688 C 716.546875 788.132812 710.339844 783.949219 705.015625 778.625 C 699.6875 773.300781 695.503906 767.09375 692.585938 760.1875 C 689.558594 753.035156 688.023438 745.433594 688.023438 737.605469 C 688.023438 729.777344 689.558594 722.179688 692.585938 715.023438 C 695.503906 708.117188 699.6875 701.910156 705.015625 696.585938 C 710.339844 691.261719 716.546875 687.074219 723.453125 684.15625 C 730.609375 681.128906 738.207031 679.597656 746.035156 679.597656 C 753.863281 679.597656 761.457031 681.128906 768.613281 684.15625 C 775.523438 687.074219 781.726562 691.261719 787.054688 696.585938 C 792.378906 701.910156 796.5625 708.117188 799.480469 715.023438 C 802.511719 722.179688 804.042969 729.777344 804.042969 737.605469 C 804.042969 745.433594 802.511719 753.035156 799.480469 760.1875 C 796.5625 767.09375 792.378906 773.300781 787.054688 778.625 C 781.726562 783.949219 775.523438 788.132812 768.613281 791.054688 C 761.457031 794.082031 753.863281 795.613281 746.035156 795.613281 " fill-opacity="1" fill-rule="nonzero"/></g></svg>